{
  "accessors": [
    {
      "bufferView": 2,
      "componentType": 5126,
      "count": 12020,
      "max": [
        0.8028299808502197,
        1.3153300285339355,
        2.052500009536743
      ],
      "min": [
        -1.3118699789047241,
        -1.439210057258606,
        0.18327000737190247
      ],
      "type": "VEC3"
    },
    {
      "bufferView": 2,
      "byteOffset": 144240,
      "componentType": 5126,
      "count": 12020,
      "max": [
        0.9998377561569214,
        0.9999362826347351,
        0.999504029750824
      ],
      "min": [
        -0.99997878074646,
        -0.999869167804718,
        -0.9998995065689087
      ],
      "type": "VEC3"
    },
    {
      "bufferView": 1,
      "componentType": 5126,
      "count": 12020,
      "max": [
        1.0006699562072754,
        1.0001300573349
      ],
      "min": [
        -0.0019499999471008778,
        0.0
      ],
      "type": "VEC2"
    },
    {
      "bufferView": 0,
      "componentType": 5125,
      "count": 18030,
      "type": "SCALAR"
    },
    {
      "bufferView": 2,
      "byteOffset": 288480,
      "componentType": 5126,
      "count": 18717,
      "max": [
        0.6457899808883667,
        1.1660900115966797,
        1.9106500148773193
      ],
      "min": [
        -1.131909966468811,
        -1.2874499559402466,
        0.0
      ],
      "type": "VEC3"
    },
    {
      "bufferView": 2,
      "byteOffset": 513084,
      "componentType": 5126,
      "count": 18717,
      "max": [
        1.0,
        0.9999271631240845,
        0.9993025064468384
      ],
      "min": [
        -0.99997878074646,
        -0.9999271631240845,
        -0.9993025064468384
      ],
      "type": "VEC3"
    },
    {
      "bufferView": 1,
      "byteOffset": 96160,
      "componentType": 5126,
      "count": 18717,
      "max": [
        2.0,
        112.55133056640625
      ],
      "min": [
        0.0,
        0.0
      ],
      "type": "VEC2"
    },
    {
      "bufferView": 0,
      "byteOffset": 72120,
      "componentType": 5125,
      "count": 96276,
      "type": "SCALAR"
    }
  ],
  "asset": {
    "extras": {
      "author": "RosticOstafi (https://sketchfab.com/RosticOstafi)",
      "license": "CC-BY-4.0 (http://creativecommons.org/licenses/by/4.0/)",
      "source": "https://sketchfab.com/3d-models/tree-sakura-4a201fe7f1a548fa9a0b32388be75499",
      "title": "Tree Sakura"
    },
    "generator": "Sketchfab-12.66.0",
    "version": "2.0"
  },
  "bufferViews": [
    {
      "buffer": 0,
      "byteLength": 457224,
      "name": "floatBufferViews",
      "target": 34963
    },
    {
      "buffer": 0,
      "byteLength": 245896,
      "byteOffset": 457224,
      "byteStride": 8,
      "name": "floatBufferViews",
      "target": 34962
    },
    {
      "buffer": 0,
      "byteLength": 737688,
      "byteOffset": 703120,
      "byteStride": 12,
      "name": "floatBufferViews",
      "target": 34962
    }
  ],
  "buffers": [
    {
      "byteLength": 1440808,
      "uri": "scene.bin"
    }
  ],
  "images": [
    {
      "uri": "textures/DL2X2_1_baseColor.png"
    },
    {
      "uri": "textures/DL2X2_1_metallicRoughness.png"
    },
    {
      "uri": "textures/Trank_bark_baseColor.jpeg"
    },
    {
      "uri": "textures/Trank_bark_metallicRoughness.png"
    }
  ],
  "materials": [
    {
      "alphaMode": "BLEND",
      "doubleSided": true,
      "name": "DL2X2_1",
      "pbrMetallicRoughness": {
        "baseColorTexture": {
          "index": 0
        },
        "metallicRoughnessTexture": {
          "index": 1
        },
        "roughnessFactor": 0.6
      }
    },
    {
      "doubleSided": true,
      "name": "Trank_bark",
      "pbrMetallicRoughness": {
        "baseColorFactor": [
          0.3248856707317073,
          0.3248856707317073,
          0.3248856707317073,
          1.0
        ],
        "baseColorTexture": {
          "index": 2
        },
        "metallicRoughnessTexture": {
          "index": 3
        }
      }
    }
  ],
  "meshes": [
    {
      "name": "Object_0",
      "primitives": [
        {
          "attributes": {
            "NORMAL": 1,
            "POSITION": 0,
            "TEXCOORD_0": 2
          },
          "indices": 3,
          "material": 0,
          "mode": 4
        }
      ]
    },
    {
      "name": "Object_1",
      "primitives": [
        {
          "attributes": {
            "NORMAL": 5,
            "POSITION": 4,
            "TEXCOORD_0": 6
          },
          "indices": 7,
          "material": 1,
          "mode": 4
        }
      ]
    }
  ],
  "nodes": [
    {
      "children": [
        1
      ],
      "matrix": [
        1.0,
        0.0,
        0.0,
        0.0,
        0.0,
        2.220446049250313e-16,
        -1.0,
        0.0,
        0.0,
        1.0,
        2.220446049250313e-16,
        0.0,
        0.0,
        0.0,
        0.0,
        1.0
      ],
      "name": "Sketchfab_model"
    },
    {
      "children": [
        2,
        3
      ],
      "name": "Tree.obj.cleaner.materialmerger.gles"
    },
    {
      "mesh": 0,
      "name": "Object_2"
    },
    {
      "mesh": 1,
      "name": "Object_3"
    }
  ],
  "samplers": [
    {
      "magFilter": 9729,
      "minFilter": 9987,
      "wrapS": 10497,
      "wrapT": 10497
    }
  ],
  "scene": 0,
  "scenes": [
    {
      "name": "Sketchfab_Scene",
      "nodes": [
        0
      ]
    }
  ],
  "textures": [
    {
      "sampler": 0,
      "source": 0
    },
    {
      "sampler": 0,
      "source": 1
    },
    {
      "sampler": 0,
      "source": 2
    },
    {
      "sampler": 0,
      "source": 3
    }
  ]
}
