{
	"asset":{
		"version":"2.0",
		"generator":"Houdini GLTF 2.0 Exporter"
	},
	"accessors":[
		{
			"bufferView":0,
			"componentType":5123,
			"count":5244,
			"type":"SCALAR",
			"min":[0
			],
			"max":[5243
			]
		},
		{
			"bufferView":1,
			"componentType":5126,
			"count":5244,
			"type":"VEC3",
			"min":[-0.1001269,-0.0854600817,0.000881433487
			],
			"max":[0.0511801317,0.0709934682,0.0378886014
			]
		},
		{
			"bufferView":2,
			"componentType":5126,
			"count":5244,
			"type":"VEC2",
			"min":[0,0.000979065895
			],
			"max":[0.998750985,1
			]
		},
		{
			"bufferView":3,
			"componentType":5126,
			"count":5244,
			"type":"VEC3",
			"min":[-0.999682069,-0.999868691,-0.999928057
			],
			"max":[0.999006927,0.995639205,0.999215543
			]
		}
	],
	"buffers":[
		{
			"uri":"banana_data.bin",
			"byteLength":178296,
			"name":"main_buffer"
		}
	],
	"bufferViews":[
		{
			"buffer":0,
			"byteLength":10488,
			"target":34963
		},
		{
			"buffer":0,
			"byteOffset":10488,
			"byteLength":62928,
			"target":34962
		},
		{
			"buffer":0,
			"byteOffset":73416,
			"byteLength":41952,
			"target":34962
		},
		{
			"buffer":0,
			"byteOffset":115368,
			"byteLength":62928,
			"target":34962
		}
	],
	"nodes":[
		{
			"name":"geo1",
			"mesh":0
		}
	],
	"meshes":[
		{
			"primitives":[
				{
					"attributes":{
						"NORMAL":3,
						"TEXCOORD_0":2,
						"POSITION":1
					},
					"indices":0,
					"material":0
				}
			]
		}
	],
	"materials":[
		{
			"name":"Material_1",
			"pbrMetallicRoughness":{
				"metallicFactor":0,
				"roughnessFactor":0.65200001,
				"baseColorTexture":{
					"index":0
				}
			},
			"normalTexture":{
				"index":1
			}
		}
	],
	"scenes":[
		{
			"nodes":[0
			]
		}
	],
	"textures":[
		{
			"source":0
		},
		{
			"source":1
		}
	],
	"images":[
		{
			"uri":"Banana_diffuse.png",
			"mimeType":"image/png"
		},
		{
			"uri":"Banana_normal.png",
			"mimeType":"image/png"
		}
	],
	"scene":0
}
